<svg xmlns="http://www.w3.org/2000/svg" xmlns:xlink="http://www.w3.org/1999/xlink" width="500" zoomAndPan="magnify" viewBox="0 0 375 374.999991" height="500" preserveAspectRatio="xMidYMid meet" version="1.0"><defs><g/><clipPath id="id1"><path d="M 137.832031 128.703125 L 211 128.703125 L 211 202 L 137.832031 202 Z M 137.832031 128.703125 " clip-rule="nonzero"/></clipPath><clipPath id="id2"><path d="M 219.75 159.394531 L 247.5 159.394531 L 247.5 187.144531 L 219.75 187.144531 Z M 219.75 159.394531 " clip-rule="nonzero"/></clipPath><clipPath id="id3"><path d="M 109.289062 207.269531 L 126.539062 207.269531 L 126.539062 224.519531 L 109.289062 224.519531 Z M 109.289062 207.269531 " clip-rule="nonzero"/></clipPath></defs><path fill="#14b8a6" d="M 193.675781 190.527344 L 199.65625 184.546875 L 211.796875 196.6875 L 205.816406 202.667969 Z M 193.675781 190.527344 " fill-opacity="1" fill-rule="nonzero"/><path fill="#14b8a6" d="M 230.976562 209.078125 C 233.617188 211.722656 233.617188 216.007812 230.976562 218.65625 L 227.785156 221.84375 C 225.136719 224.492188 220.851562 224.492188 218.210938 221.84375 L 201.105469 204.738281 C 198.460938 202.089844 198.460938 197.808594 201.105469 195.164062 L 204.296875 191.972656 C 206.9375 189.328125 211.230469 189.328125 213.871094 191.972656 Z M 230.976562 209.078125 " fill-opacity="1" fill-rule="nonzero"/><g clip-path="url(#id1)"><path fill="#14b8a6" d="M 174.15625 128.65625 C 154.066406 128.65625 137.789062 144.9375 137.789062 165.027344 C 137.789062 185.117188 154.066406 201.398438 174.15625 201.398438 C 194.246094 201.398438 210.53125 185.117188 210.53125 165.027344 C 210.53125 144.9375 194.246094 128.65625 174.15625 128.65625 Z M 174.15625 194.667969 C 157.78125 194.667969 144.511719 181.402344 144.511719 165.027344 C 144.511719 148.648438 157.78125 135.382812 174.15625 135.382812 C 190.53125 135.382812 203.800781 148.648438 203.800781 165.027344 C 203.800781 181.402344 190.53125 194.667969 174.15625 194.667969 Z M 174.15625 194.667969 " fill-opacity="1" fill-rule="nonzero"/></g><path fill="#14b8a6" d="M 181.613281 183.027344 C 167.105469 183.027344 155.339844 171.265625 155.339844 156.753906 C 155.339844 156.367188 155.378906 155.988281 155.398438 155.605469 C 153.480469 158.703125 152.359375 162.347656 152.359375 166.253906 C 152.359375 177.472656 161.453125 186.566406 172.671875 186.566406 C 177.003906 186.566406 181.007812 185.199219 184.308594 182.890625 C 183.421875 182.988281 182.523438 183.027344 181.613281 183.027344 Z M 181.613281 183.027344 " fill-opacity="1" fill-rule="nonzero"/><g clip-path="url(#id2)"><path fill="#172738" d="M 219.75 173.265625 C 231.78125 175.113281 231.78125 175.113281 233.628906 187.140625 C 235.46875 175.113281 235.46875 175.113281 247.5 173.265625 C 235.46875 171.425781 235.46875 171.425781 233.628906 159.394531 C 231.78125 171.425781 231.78125 171.425781 219.75 173.265625 " fill-opacity="1" fill-rule="nonzero"/></g><g clip-path="url(#id3)"><path fill="#172738" d="M 109.289062 215.894531 C 116.769531 217.042969 116.769531 217.042969 117.917969 224.519531 C 119.058594 217.042969 119.058594 217.042969 126.539062 215.894531 C 119.058594 214.75 119.058594 214.75 117.917969 207.273438 C 116.769531 214.75 116.769531 214.75 109.289062 215.894531 " fill-opacity="1" fill-rule="nonzero"/></g><g fill="#14b8a6" fill-opacity="1"><g transform="translate(107.809935, 254.445086)"><g><path d="M 13.515625 -26.625 L 13.515625 -7.515625 C 13.515625 -4.910156 12.800781 -2.925781 11.375 -1.5625 C 9.945312 -0.195312 7.898438 0.484375 5.234375 0.484375 C 4.515625 0.484375 3.8125 0.394531 3.125 0.21875 C 2.4375 0.0507812 1.851562 -0.15625 1.375 -0.40625 C 0.90625 -0.65625 0.484375 -0.90625 0.109375 -1.15625 C -0.265625 -1.414062 -0.535156 -1.632812 -0.703125 -1.8125 L -1 -2.0625 L 0.9375 -7.125 C 2.207031 -5.925781 3.359375 -5.328125 4.390625 -5.328125 C 5.316406 -5.328125 6.054688 -5.628906 6.609375 -6.234375 C 7.171875 -6.847656 7.453125 -7.789062 7.453125 -9.0625 L 7.453125 -26.625 Z M 13.515625 -26.625 "/></g></g></g><g fill="#14b8a6" fill-opacity="1"><g transform="translate(122.940717, 254.445086)"><g><path d="M 0.734375 -13.328125 C 0.734375 -17.171875 2.046875 -20.425781 4.671875 -23.09375 C 7.296875 -25.769531 10.460938 -27.109375 14.171875 -27.109375 C 17.890625 -27.109375 21.050781 -25.78125 23.65625 -23.125 C 26.257812 -20.46875 27.5625 -17.203125 27.5625 -13.328125 C 27.5625 -9.429688 26.28125 -6.15625 23.71875 -3.5 C 21.15625 -0.84375 17.972656 0.484375 14.171875 0.484375 C 10.273438 0.484375 7.0625 -0.832031 4.53125 -3.46875 C 2 -6.101562 0.734375 -9.390625 0.734375 -13.328125 Z M 7.296875 -13.328125 C 7.296875 -11.929688 7.507812 -10.65625 7.9375 -9.5 C 8.363281 -8.351562 9.113281 -7.378906 10.1875 -6.578125 C 11.269531 -5.785156 12.597656 -5.390625 14.171875 -5.390625 C 16.421875 -5.390625 18.117188 -6.160156 19.265625 -7.703125 C 20.421875 -9.253906 21 -11.128906 21 -13.328125 C 21 -15.492188 20.410156 -17.359375 19.234375 -18.921875 C 18.066406 -20.484375 16.378906 -21.265625 14.171875 -21.265625 C 11.972656 -21.265625 10.273438 -20.484375 9.078125 -18.921875 C 7.890625 -17.359375 7.296875 -15.492188 7.296875 -13.328125 Z M 7.296875 -13.328125 "/></g></g></g><g fill="#14b8a6" fill-opacity="1"><g transform="translate(151.234309, 254.445086)"><g><path d="M 1.9375 -26.625 L 10.203125 -26.625 C 12.691406 -26.625 14.675781 -26.085938 16.15625 -25.015625 C 17.644531 -23.953125 18.390625 -22.226562 18.390625 -19.84375 C 18.390625 -17.175781 17.28125 -15.269531 15.0625 -14.125 C 18.851562 -13.457031 20.75 -11.222656 20.75 -7.421875 C 20.75 -5.179688 19.972656 -3.382812 18.421875 -2.03125 C 16.867188 -0.675781 14.738281 0 12.03125 0 L 1.9375 0 Z M 8 -16.203125 L 8.484375 -16.203125 C 9.835938 -16.203125 10.847656 -16.4375 11.515625 -16.90625 C 12.179688 -17.375 12.515625 -18.148438 12.515625 -19.234375 C 12.515625 -21.035156 11.171875 -21.9375 8.484375 -21.9375 L 8 -21.9375 Z M 8 -4.671875 L 9.90625 -4.671875 C 12.875 -4.671875 14.359375 -5.660156 14.359375 -7.640625 C 14.359375 -8.828125 13.984375 -9.675781 13.234375 -10.1875 C 12.492188 -10.707031 11.382812 -10.96875 9.90625 -10.96875 L 8 -10.96875 Z M 8 -4.671875 "/></g></g></g><g fill="#172738" fill-opacity="1"><g transform="translate(172.720087, 254.445086)"><g><path d="M 8 -10.6875 L 8 0 L 1.9375 0 L 1.9375 -26.625 L 8 -26.625 L 8 -16 L 16.578125 -16 L 16.578125 -26.625 L 22.65625 -26.625 L 22.65625 0 L 16.578125 0 L 16.578125 -10.6875 Z M 8 -10.6875 "/></g></g></g><g fill="#172738" fill-opacity="1"><g transform="translate(197.303574, 254.445086)"><g><path d="M 22.390625 -26.625 L 22.390625 -9.453125 C 22.390625 -6.179688 21.503906 -3.707031 19.734375 -2.03125 C 17.972656 -0.351562 15.394531 0.484375 12 0.484375 C 8.601562 0.484375 6.019531 -0.351562 4.25 -2.03125 C 2.488281 -3.707031 1.609375 -6.179688 1.609375 -9.453125 L 1.609375 -26.625 L 7.671875 -26.625 L 7.671875 -11.234375 C 7.671875 -9.078125 8.007812 -7.578125 8.6875 -6.734375 C 9.375 -5.898438 10.476562 -5.484375 12 -5.484375 C 13.53125 -5.484375 14.632812 -5.898438 15.3125 -6.734375 C 15.988281 -7.578125 16.328125 -9.078125 16.328125 -11.234375 L 16.328125 -26.625 Z M 22.390625 -26.625 "/></g></g></g><g fill="#172738" fill-opacity="1"><g transform="translate(221.306342, 254.445086)"><g><path d="M 8 -16.515625 L 8 0 L 1.9375 0 L 1.9375 -26.625 L 8 -26.625 L 18.578125 -10.09375 L 18.65625 -10.09375 L 18.65625 -26.625 L 24.71875 -26.625 L 24.71875 0 L 18.65625 0 L 8.0625 -16.515625 Z M 8 -16.515625 "/></g></g></g><g fill="#172738" fill-opacity="1"><g transform="translate(247.954584, 254.445086)"><g><path d="M 0.265625 -21.296875 L 0.265625 -26.625 L 18.96875 -26.625 L 18.96875 -21.296875 L 12.640625 -21.296875 L 12.640625 0 L 6.578125 0 L 6.578125 -21.296875 Z M 0.265625 -21.296875 "/></g></g></g></svg>